<mxfile host="app.diagrams.net" modified="2023-08-13T03:33:45.463Z" agent="Mozilla/5.0 (X11; Linux x86_64) AppleWebKit/537.36 (KHTML, like Gecko) Chrome/115.0.0.0 Safari/537.36" version="21.6.8" etag="9DE22YBD31e7mqCsTzCA" type="github">
  <diagram name="Page-1" id="c9QKKf6pS3hGGxS4O7QB">
    <mxGraphModel>
      <root>
        <mxCell id="0" />
        <mxCell id="1" parent="0" />
      </root>
    </mxGraphModel>
  </diagram>
</mxfile>
